<svg width="56" height="24" viewBox="0 0 56 24" fill="none" xmlns="http://www.w3.org/2000/svg">
<g clip-path="url(#clip0_63_1043)">
<path d="M9.49094 8.97008V10.0601H9.47094C9.03094 9.31008 8.31094 8.83008 7.42094 8.83008C5.55094 8.83008 4.71094 10.1701 4.71094 11.9701C4.71094 13.7701 5.74094 15.0001 7.39094 15.0001C8.22094 15.0001 8.91094 14.6801 9.41094 13.9701H9.43094V14.3001C9.43094 15.4801 8.79094 16.0401 7.59094 16.0401C6.72094 16.0401 6.19094 15.8601 5.55094 15.5501L5.44094 17.1901C5.93094 17.3701 6.75094 17.5701 7.74094 17.5701C10.1709 17.5701 11.3709 16.7701 11.3709 14.3001V8.97008H9.49094ZM8.03094 13.4001C7.40094 13.4001 6.85094 12.8701 6.85094 11.9401C6.85094 11.1101 7.25094 10.4301 8.03094 10.4301C8.97094 10.4301 9.36094 11.1801 9.36094 11.8501C9.36094 12.7801 8.77094 13.4001 8.03094 13.4001Z" fill="white"/>
<path d="M14.8808 6.4502H12.8008V7.9902H14.8808V6.4502Z" fill="white"/>
<path d="M14.8808 8.96973H12.8008V14.9997H14.8808V8.96973Z" fill="white"/>
<path d="M18.3495 15.0101H16.2695V8.97008H18.1695V10.0801H18.1895C18.5495 9.31008 19.0695 8.83008 19.9695 8.83008C20.2095 8.83008 20.4695 8.87008 20.6695 8.90008L20.5695 10.6401C20.3395 10.5701 20.1095 10.5701 19.8695 10.5701C18.8995 10.5701 18.3495 11.2801 18.3495 12.4601V15.0101Z" fill="white"/>
<path d="M24.2598 8.83008C22.2698 8.83008 20.7598 9.99008 20.7598 11.9901C20.7598 13.9901 22.2598 15.1401 24.2598 15.1401C26.2598 15.1401 27.7598 13.9801 27.7598 11.9901C27.7598 10.0001 26.2398 8.83008 24.2598 8.83008ZM24.2598 13.6801C23.2998 13.6801 22.9098 12.8801 22.9098 11.9901C22.9098 11.1001 23.2998 10.2901 24.2598 10.2901C25.2198 10.2901 25.6098 11.0901 25.6098 11.9901C25.6098 12.8901 25.2098 13.6801 24.2598 13.6801Z" fill="white"/>
<path d="M34.23 10.42C33.47 10.42 32.96 11.1 32.96 12C32.96 12.9 33.54 13.54 34.23 13.54C35.02 13.54 35.49 12.89 35.49 11.92C35.49 11.12 35.04 10.43 34.23 10.42ZM41.73 12.29C41.03 12.29 40.47 12.51 40.47 13.09C40.47 13.51 40.84 13.75 41.33 13.74C42.11 13.74 42.61 13.03 42.61 12.32C42.34 12.31 42.05 12.29 41.73 12.29ZM41.73 12.29C41.03 12.29 40.47 12.51 40.47 13.09C40.47 13.51 40.84 13.75 41.33 13.74C42.11 13.74 42.61 13.03 42.61 12.32C42.34 12.31 42.05 12.29 41.73 12.29ZM34.23 10.42C33.47 10.42 32.96 11.1 32.96 12C32.96 12.9 33.54 13.54 34.23 13.54C35.02 13.54 35.49 12.89 35.49 11.92C35.49 11.12 35.04 10.43 34.23 10.42ZM51.37 0H4.32C1.94 0 0 1.92 0 4.3V19.69C0 22.07 1.94 24 4.32 23.99H51.37C53.76 23.99 55.69 22.06 55.69 19.69V4.3C55.69 1.92 53.75 0 51.37 0ZM29.12 22.24H4.47C2.98 22.24 1.77 21.03 1.77 19.55V4.45C1.77 2.96 2.98 1.76 4.47 1.76H29.12V22.24ZM34.89 15.14C34.16 15.14 33.38 14.88 32.98 14.16H32.96V17.44H30.87V8.98H32.79V10.07H32.81C33.23 9.22 34.11 8.84 35.06 8.84C36.72 8.84 37.63 10.42 37.63 11.88C37.63 13.66 36.68 15.14 34.89 15.14ZM42.77 15C42.76 14.67 42.73 14.36 42.73 14.05H42.71C42.23 14.8 41.66 15.14 40.8 15.14C39.61 15.14 38.55 14.55 38.55 13.24C38.55 11.4 40.55 11.18 41.66 11.18C41.99 11.18 42.36 11.22 42.62 11.26C42.61 10.44 41.99 10.22 41.25 10.22C40.57 10.22 39.91 10.34 39.33 10.67L39.29 9.26C40.03 8.96 40.81 8.83 41.69 8.83C43.23 8.83 44.56 9.49 44.56 11.33V13.58C44.56 14.05 44.58 14.52 44.67 15H42.77ZM49.85 14.59C49.26 16.1 48.8 17.58 46.9 17.58C46.46 17.58 46.03 17.53 45.6 17.44L45.75 15.86C46.03 15.94 46.28 15.98 46.57 15.98C47.08 15.98 47.47 15.69 47.62 15.15L45.18 8.98H47.42L48.71 12.91H48.73L49.97 8.98H52.05L49.85 14.59ZM40.47 13.09C40.47 13.51 40.84 13.75 41.33 13.74C42.11 13.74 42.61 13.03 42.61 12.32C42.34 12.31 42.05 12.29 41.73 12.29C41.03 12.29 40.47 12.51 40.47 13.09ZM34.23 10.42C33.47 10.42 32.96 11.1 32.96 12C32.96 12.9 33.54 13.54 34.23 13.54C35.02 13.54 35.49 12.89 35.49 11.92C35.49 11.12 35.04 10.43 34.23 10.42ZM34.23 10.42C33.47 10.42 32.96 11.1 32.96 12C32.96 12.9 33.54 13.54 34.23 13.54C35.02 13.54 35.49 12.89 35.49 11.92C35.49 11.12 35.04 10.43 34.23 10.42ZM34.23 10.42C33.47 10.42 32.96 11.1 32.96 12C32.96 12.9 33.54 13.54 34.23 13.54C35.02 13.54 35.49 12.89 35.49 11.92C35.49 11.12 35.04 10.43 34.23 10.42Z" fill="white"/>
<path d="M9.49094 8.97008V10.0601H9.47094C9.03094 9.31008 8.31094 8.83008 7.42094 8.83008C5.55094 8.83008 4.71094 10.1701 4.71094 11.9701C4.71094 13.7701 5.74094 15.0001 7.39094 15.0001C8.22094 15.0001 8.91094 14.6801 9.41094 13.9701H9.43094V14.3001C9.43094 15.4801 8.79094 16.0401 7.59094 16.0401C6.72094 16.0401 6.19094 15.8601 5.55094 15.5501L5.44094 17.1901C5.93094 17.3701 6.75094 17.5701 7.74094 17.5701C10.1709 17.5701 11.3709 16.7701 11.3709 14.3001V8.97008H9.49094ZM8.03094 13.4001C7.40094 13.4001 6.85094 12.8701 6.85094 11.9401C6.85094 11.1101 7.25094 10.4301 8.03094 10.4301C8.97094 10.4301 9.36094 11.1801 9.36094 11.8501C9.36094 12.7801 8.77094 13.4001 8.03094 13.4001Z" fill="#1E1E1E"/>
<path d="M14.8808 6.4502H12.8008V7.9902H14.8808V6.4502Z" fill="#1E1E1E"/>
<path d="M14.8808 8.96973H12.8008V14.9997H14.8808V8.96973Z" fill="#1E1E1E"/>
<path d="M19.9695 8.83008C20.2095 8.83008 20.4695 8.87008 20.6695 8.90008L20.5695 10.6401C20.3395 10.5701 20.1095 10.5701 19.8695 10.5701C18.8995 10.5701 18.3495 11.2801 18.3495 12.4601V15.0101H16.2695V8.97008H18.1695V10.0801H18.1895C18.5495 9.31008 19.0695 8.83008 19.9695 8.83008Z" fill="#1E1E1E"/>
<path d="M24.2598 8.83008C22.2698 8.83008 20.7598 9.99008 20.7598 11.9901C20.7598 13.9901 22.2598 15.1401 24.2598 15.1401C26.2598 15.1401 27.7598 13.9801 27.7598 11.9901C27.7598 10.0001 26.2398 8.83008 24.2598 8.83008ZM24.2598 13.6801C23.2998 13.6801 22.9098 12.8801 22.9098 11.9901C22.9098 11.1001 23.2998 10.2901 24.2598 10.2901C25.2198 10.2901 25.6098 11.0901 25.6098 11.9901C25.6098 12.8901 25.2098 13.6801 24.2598 13.6801Z" fill="#1E1E1E"/>
<path d="M24.2609 8.8302C22.2709 8.8302 20.7609 9.9902 20.7609 11.9902C20.7609 13.9902 22.2609 15.1402 24.2609 15.1402C26.2609 15.1402 27.7609 13.9802 27.7609 11.9902C27.7609 10.0002 26.2409 8.8302 24.2609 8.8302ZM24.2609 13.6802C23.3009 13.6802 22.9109 12.8802 22.9109 11.9902C22.9109 11.1002 23.3009 10.2902 24.2609 10.2902C25.2209 10.2902 25.6109 11.0902 25.6109 11.9902C25.6109 12.8902 25.2109 13.6802 24.2609 13.6802ZM19.9709 8.8302C19.0709 8.8302 18.5509 9.3102 18.1909 10.0802H18.1709V8.9702H16.2709V15.0102H18.3509V12.4602C18.3509 11.2802 18.9009 10.5702 19.8709 10.5702C20.1109 10.5702 20.3409 10.5702 20.5709 10.6402L20.6709 8.9002C20.4709 8.8702 20.2109 8.8302 19.9709 8.8302ZM12.8009 8.9702V15.0002H14.8809V8.9702H12.8009ZM12.8009 6.4502V7.9902H14.8809V6.4502H12.8009ZM9.49094 8.9702V10.0602H9.47094C9.03094 9.3102 8.31094 8.8302 7.42094 8.8302C5.55094 8.8302 4.71094 10.1702 4.71094 11.9702C4.71094 13.7702 5.74094 15.0002 7.39094 15.0002C8.22094 15.0002 8.91094 14.6802 9.41094 13.9702H9.43094V14.3002C9.43094 15.4802 8.79094 16.0402 7.59094 16.0402C6.72094 16.0402 6.19094 15.8602 5.55094 15.5502L5.44094 17.1902C5.93094 17.3702 6.75094 17.5702 7.74094 17.5702C10.1709 17.5702 11.3709 16.7702 11.3709 14.3002V8.9702H9.49094ZM8.03094 13.4002C7.40094 13.4002 6.85094 12.8702 6.85094 11.9402C6.85094 11.1102 7.25094 10.4302 8.03094 10.4302C8.97094 10.4302 9.36094 11.1802 9.36094 11.8502C9.36094 12.7802 8.77094 13.4002 8.03094 13.4002Z" fill="white"/>
</g>
<defs>
<clipPath id="clip0_63_1043">
<rect width="55.69" height="23.99" fill="white"/>
</clipPath>
</defs>
</svg>
