<svg width="244" height="50" viewBox="0 0 244 50" fill="none" xmlns="http://www.w3.org/2000/svg">
<path d="M29.736 30.16C28.8613 30.16 28.056 30.0213 27.32 29.744C26.5947 29.456 25.96 29.056 25.416 28.544C24.872 28.0213 24.4507 27.408 24.152 26.704C23.8533 26 23.704 25.232 23.704 24.4C23.704 23.568 23.8533 22.8 24.152 22.096C24.4507 21.392 24.872 20.784 25.416 20.272C25.9707 19.7493 26.616 19.3493 27.352 19.072C28.088 18.784 28.8933 18.64 29.768 18.64C30.7173 18.64 31.5707 18.7947 32.328 19.104C33.096 19.4133 33.7413 19.8667 34.264 20.464L32.952 21.744C32.5147 21.3067 32.04 20.9867 31.528 20.784C31.0267 20.5707 30.472 20.464 29.864 20.464C29.2773 20.464 28.7333 20.56 28.232 20.752C27.7307 20.944 27.2987 21.216 26.936 21.568C26.5733 21.92 26.2907 22.336 26.088 22.816C25.896 23.296 25.8 23.824 25.8 24.4C25.8 24.9653 25.896 25.488 26.088 25.968C26.2907 26.448 26.5733 26.8693 26.936 27.232C27.2987 27.584 27.7253 27.856 28.216 28.048C28.7067 28.24 29.2507 28.336 29.848 28.336C30.4027 28.336 30.936 28.2507 31.448 28.08C31.9707 27.8987 32.4667 27.6 32.936 27.184L34.12 28.736C33.5333 29.2053 32.8507 29.5627 32.072 29.808C31.304 30.0427 30.5253 30.16 29.736 30.16ZM32.152 28.464V24.272H34.12V28.736L32.152 28.464ZM40.6874 30.112C39.738 30.112 38.906 29.9253 38.1914 29.552C37.4874 29.168 36.938 28.6453 36.5434 27.984C36.1594 27.3227 35.9674 26.5707 35.9674 25.728C35.9674 24.8747 36.154 24.1227 36.5274 23.472C36.9114 22.8107 37.434 22.2933 38.0954 21.92C38.7674 21.5467 39.53 21.36 40.3834 21.36C41.2154 21.36 41.9567 21.5413 42.6074 21.904C43.258 22.2667 43.77 22.7787 44.1434 23.44C44.5167 24.1013 44.7034 24.88 44.7034 25.776C44.7034 25.8613 44.698 25.9573 44.6874 26.064C44.6874 26.1707 44.682 26.272 44.6714 26.368H37.5514V25.04H43.6154L42.8314 25.456C42.842 24.9653 42.7407 24.5333 42.5274 24.16C42.314 23.7867 42.0207 23.4933 41.6474 23.28C41.2847 23.0667 40.8634 22.96 40.3834 22.96C39.8927 22.96 39.4607 23.0667 39.0874 23.28C38.7247 23.4933 38.4367 23.792 38.2234 24.176C38.0207 24.5493 37.9194 24.992 37.9194 25.504V25.824C37.9194 26.336 38.0367 26.7893 38.2714 27.184C38.506 27.5787 38.8367 27.8827 39.2634 28.096C39.69 28.3093 40.1807 28.416 40.7354 28.416C41.2154 28.416 41.6474 28.3413 42.0314 28.192C42.4154 28.0427 42.7567 27.808 43.0554 27.488L44.1274 28.72C43.7434 29.168 43.258 29.5147 42.6714 29.76C42.0954 29.9947 41.434 30.112 40.6874 30.112ZM49.2645 30.112C48.5498 30.112 47.8618 30.0213 47.2005 29.84C46.5498 29.648 46.0325 29.4187 45.6485 29.152L46.4165 27.632C46.8005 27.8773 47.2592 28.08 47.7925 28.24C48.3258 28.4 48.8592 28.48 49.3925 28.48C50.0218 28.48 50.4752 28.3947 50.7525 28.224C51.0405 28.0533 51.1845 27.824 51.1845 27.536C51.1845 27.3013 51.0885 27.1253 50.8965 27.008C50.7045 26.88 50.4538 26.784 50.1445 26.72C49.8352 26.656 49.4885 26.5973 49.1045 26.544C48.7312 26.4907 48.3525 26.4213 47.9685 26.336C47.5952 26.24 47.2538 26.1067 46.9445 25.936C46.6352 25.7547 46.3845 25.5147 46.1925 25.216C46.0005 24.9173 45.9045 24.5227 45.9045 24.032C45.9045 23.488 46.0592 23.0187 46.3685 22.624C46.6778 22.2187 47.1098 21.9093 47.6645 21.696C48.2298 21.472 48.8965 21.36 49.6645 21.36C50.2405 21.36 50.8218 21.424 51.4085 21.552C51.9952 21.68 52.4805 21.8613 52.8645 22.096L52.0965 23.616C51.6912 23.3707 51.2805 23.2053 50.8645 23.12C50.4592 23.024 50.0538 22.976 49.6485 22.976C49.0405 22.976 48.5872 23.0667 48.2885 23.248C48.0005 23.4293 47.8565 23.6587 47.8565 23.936C47.8565 24.192 47.9525 24.384 48.1445 24.512C48.3365 24.64 48.5872 24.7413 48.8965 24.816C49.2058 24.8907 49.5472 24.9547 49.9205 25.008C50.3045 25.0507 50.6832 25.12 51.0565 25.216C51.4298 25.312 51.7712 25.4453 52.0805 25.616C52.4005 25.776 52.6565 26.0053 52.8485 26.304C53.0405 26.6027 53.1365 26.992 53.1365 27.472C53.1365 28.0053 52.9765 28.4693 52.6565 28.864C52.3472 29.2587 51.9045 29.568 51.3285 29.792C50.7525 30.0053 50.0645 30.112 49.2645 30.112ZM58.7789 30.112C57.8829 30.112 57.0829 29.9253 56.3789 29.552C55.6855 29.168 55.1415 28.6453 54.7469 27.984C54.3522 27.3227 54.1549 26.5707 54.1549 25.728C54.1549 24.8747 54.3522 24.1227 54.7469 23.472C55.1415 22.8107 55.6855 22.2933 56.3789 21.92C57.0829 21.5467 57.8829 21.36 58.7789 21.36C59.6109 21.36 60.3415 21.5307 60.9709 21.872C61.6109 22.2027 62.0962 22.6933 62.4269 23.344L60.8909 24.24C60.6349 23.8347 60.3202 23.536 59.9469 23.344C59.5842 23.152 59.1895 23.056 58.7629 23.056C58.2722 23.056 57.8295 23.1627 57.4349 23.376C57.0402 23.5893 56.7309 23.8987 56.5069 24.304C56.2829 24.6987 56.1709 25.1733 56.1709 25.728C56.1709 26.2827 56.2829 26.7627 56.5069 27.168C56.7309 27.5627 57.0402 27.8667 57.4349 28.08C57.8295 28.2933 58.2722 28.4 58.7629 28.4C59.1895 28.4 59.5842 28.304 59.9469 28.112C60.3202 27.92 60.6349 27.6213 60.8909 27.216L62.4269 28.112C62.0962 28.752 61.6109 29.248 60.9709 29.6C60.3415 29.9413 59.6109 30.112 58.7789 30.112ZM68.9256 21.36C69.6083 21.36 70.2163 21.4933 70.7496 21.76C71.2936 22.0267 71.7203 22.4373 72.0296 22.992C72.339 23.536 72.4936 24.24 72.4936 25.104V30H70.4936V25.36C70.4936 24.6027 70.3123 24.0373 69.9496 23.664C69.5976 23.2907 69.1016 23.104 68.4616 23.104C67.9923 23.104 67.5763 23.2 67.2136 23.392C66.851 23.584 66.5683 23.872 66.3656 24.256C66.1736 24.6293 66.0776 25.104 66.0776 25.68V30H64.0776V18.128H66.0776V23.76L65.6456 23.056C65.9443 22.512 66.3763 22.096 66.9416 21.808C67.5176 21.5093 68.179 21.36 68.9256 21.36ZM80.2948 30V28.272L80.1828 27.904V24.88C80.1828 24.2933 80.0068 23.84 79.6548 23.52C79.3028 23.1893 78.7694 23.024 78.0548 23.024C77.5748 23.024 77.1001 23.0987 76.6308 23.248C76.1721 23.3973 75.7828 23.6053 75.4628 23.872L74.6788 22.416C75.1374 22.064 75.6814 21.8027 76.3108 21.632C76.9508 21.4507 77.6121 21.36 78.2948 21.36C79.5321 21.36 80.4868 21.6587 81.1588 22.256C81.8414 22.8427 82.1828 23.7547 82.1828 24.992V30H80.2948ZM77.6068 30.112C76.9668 30.112 76.4068 30.0053 75.9268 29.792C75.4468 29.568 75.0734 29.264 74.8068 28.88C74.5508 28.4853 74.4228 28.0427 74.4228 27.552C74.4228 27.072 74.5348 26.64 74.7588 26.256C74.9934 25.872 75.3721 25.568 75.8948 25.344C76.4174 25.12 77.1108 25.008 77.9748 25.008H80.4548V26.336H78.1188C77.4361 26.336 76.9774 26.448 76.7428 26.672C76.5081 26.8853 76.3908 27.152 76.3908 27.472C76.3908 27.8347 76.5348 28.1227 76.8228 28.336C77.1108 28.5493 77.5108 28.656 78.0228 28.656C78.5134 28.656 78.9508 28.544 79.3348 28.32C79.7294 28.096 80.0121 27.7653 80.1828 27.328L80.5188 28.528C80.3268 29.0293 79.9801 29.4187 79.4788 29.696C78.9881 29.9733 78.3641 30.112 77.6068 30.112ZM80.0228 20.112C79.7561 20.112 79.5268 20.0267 79.3348 19.856C79.1534 19.6747 79.0628 19.44 79.0628 19.152C79.0628 18.864 79.1534 18.6293 79.3348 18.448C79.5268 18.2667 79.7561 18.176 80.0228 18.176C80.2894 18.176 80.5134 18.2667 80.6948 18.448C80.8868 18.6293 80.9828 18.864 80.9828 19.152C80.9828 19.44 80.8868 19.6747 80.6948 19.856C80.5134 20.0267 80.2894 20.112 80.0228 20.112ZM76.9188 20.112C76.6521 20.112 76.4228 20.0267 76.2308 19.856C76.0494 19.6747 75.9588 19.44 75.9588 19.152C75.9588 18.864 76.0494 18.6293 76.2308 18.448C76.4228 18.2667 76.6521 18.176 76.9188 18.176C77.1854 18.176 77.4094 18.2667 77.5908 18.448C77.7828 18.6293 77.8788 18.864 77.8788 19.152C77.8788 19.44 77.7828 19.6747 77.5908 19.856C77.4094 20.0267 77.1854 20.112 76.9188 20.112ZM85.0215 30V20.976C85.0215 20.08 85.2828 19.3653 85.8055 18.832C86.3388 18.288 87.0962 18.016 88.0775 18.016C88.4295 18.016 88.7602 18.0533 89.0695 18.128C89.3895 18.2027 89.6562 18.32 89.8695 18.48L89.3255 19.984C89.1762 19.8667 89.0055 19.7813 88.8135 19.728C88.6215 19.664 88.4242 19.632 88.2215 19.632C87.8055 19.632 87.4908 19.7493 87.2775 19.984C87.0642 20.208 86.9575 20.5493 86.9575 21.008V21.968L87.0215 22.864V30H85.0215ZM83.6135 23.12V21.52H89.3095V23.12H83.6135ZM93.8718 30.112C92.9331 30.112 92.2078 29.872 91.6957 29.392C91.1838 28.9013 90.9278 28.1813 90.9278 27.232V19.568H92.9278V27.184C92.9278 27.5893 93.0291 27.904 93.2318 28.128C93.4451 28.352 93.7384 28.464 94.1118 28.464C94.5598 28.464 94.9331 28.3467 95.2318 28.112L95.7918 29.536C95.5571 29.728 95.2691 29.872 94.9278 29.968C94.5864 30.064 94.2344 30.112 93.8718 30.112ZM89.5198 23.12V21.52H95.2158V23.12H89.5198ZM100.077 30.112C99.3623 30.112 98.6743 30.0213 98.013 29.84C97.3623 29.648 96.845 29.4187 96.461 29.152L97.229 27.632C97.613 27.8773 98.0717 28.08 98.605 28.24C99.1383 28.4 99.6717 28.48 100.205 28.48C100.834 28.48 101.288 28.3947 101.565 28.224C101.853 28.0533 101.997 27.824 101.997 27.536C101.997 27.3013 101.901 27.1253 101.709 27.008C101.517 26.88 101.266 26.784 100.957 26.72C100.648 26.656 100.301 26.5973 99.917 26.544C99.5437 26.4907 99.165 26.4213 98.781 26.336C98.4077 26.24 98.0663 26.1067 97.757 25.936C97.4477 25.7547 97.197 25.5147 97.005 25.216C96.813 24.9173 96.717 24.5227 96.717 24.032C96.717 23.488 96.8717 23.0187 97.181 22.624C97.4903 22.2187 97.9223 21.9093 98.477 21.696C99.0423 21.472 99.709 21.36 100.477 21.36C101.053 21.36 101.634 21.424 102.221 21.552C102.808 21.68 103.293 21.8613 103.677 22.096L102.909 23.616C102.504 23.3707 102.093 23.2053 101.677 23.12C101.272 23.024 100.866 22.976 100.461 22.976C99.853 22.976 99.3997 23.0667 99.101 23.248C98.813 23.4293 98.669 23.6587 98.669 23.936C98.669 24.192 98.765 24.384 98.957 24.512C99.149 24.64 99.3997 24.7413 99.709 24.816C100.018 24.8907 100.36 24.9547 100.733 25.008C101.117 25.0507 101.496 25.12 101.869 25.216C102.242 25.312 102.584 25.4453 102.893 25.616C103.213 25.776 103.469 26.0053 103.661 26.304C103.853 26.6027 103.949 26.992 103.949 27.472C103.949 28.0053 103.789 28.4693 103.469 28.864C103.16 29.2587 102.717 29.568 102.141 29.792C101.565 30.0053 100.877 30.112 100.077 30.112ZM110.407 30.112C109.682 30.112 109.037 29.952 108.471 29.632C107.906 29.312 107.458 28.832 107.127 28.192C106.807 27.5413 106.647 26.72 106.647 25.728C106.647 24.7253 106.813 23.904 107.143 23.264C107.485 22.624 107.938 22.1493 108.503 21.84C109.079 21.52 109.714 21.36 110.407 21.36C111.25 21.36 111.991 21.5413 112.631 21.904C113.282 22.2667 113.794 22.7733 114.167 23.424C114.551 24.0747 114.743 24.8427 114.743 25.728C114.743 26.6133 114.551 27.3813 114.167 28.032C113.794 28.6827 113.282 29.1947 112.631 29.568C111.991 29.9307 111.25 30.112 110.407 30.112ZM105.671 30V18.128H107.671V23.44L107.511 25.712L107.575 27.984V30H105.671ZM110.183 28.4C110.663 28.4 111.09 28.2933 111.463 28.08C111.847 27.8667 112.151 27.5573 112.375 27.152C112.599 26.7467 112.711 26.272 112.711 25.728C112.711 25.1733 112.599 24.6987 112.375 24.304C112.151 23.8987 111.847 23.5893 111.463 23.376C111.09 23.1627 110.663 23.056 110.183 23.056C109.703 23.056 109.271 23.1627 108.887 23.376C108.503 23.5893 108.199 23.8987 107.975 24.304C107.751 24.6987 107.639 25.1733 107.639 25.728C107.639 26.272 107.751 26.7467 107.975 27.152C108.199 27.5573 108.503 27.8667 108.887 28.08C109.271 28.2933 109.703 28.4 110.183 28.4ZM120.656 30.112C119.707 30.112 118.875 29.9253 118.16 29.552C117.456 29.168 116.907 28.6453 116.512 27.984C116.128 27.3227 115.936 26.5707 115.936 25.728C115.936 24.8747 116.123 24.1227 116.496 23.472C116.88 22.8107 117.403 22.2933 118.064 21.92C118.736 21.5467 119.499 21.36 120.352 21.36C121.184 21.36 121.925 21.5413 122.576 21.904C123.227 22.2667 123.739 22.7787 124.112 23.44C124.485 24.1013 124.672 24.88 124.672 25.776C124.672 25.8613 124.667 25.9573 124.656 26.064C124.656 26.1707 124.651 26.272 124.64 26.368H117.52V25.04H123.584L122.8 25.456C122.811 24.9653 122.709 24.5333 122.496 24.16C122.283 23.7867 121.989 23.4933 121.616 23.28C121.253 23.0667 120.832 22.96 120.352 22.96C119.861 22.96 119.429 23.0667 119.056 23.28C118.693 23.4933 118.405 23.792 118.192 24.176C117.989 24.5493 117.888 24.992 117.888 25.504V25.824C117.888 26.336 118.005 26.7893 118.24 27.184C118.475 27.5787 118.805 27.8827 119.232 28.096C119.659 28.3093 120.149 28.416 120.704 28.416C121.184 28.416 121.616 28.3413 122 28.192C122.384 28.0427 122.725 27.808 123.024 27.488L124.096 28.72C123.712 29.168 123.227 29.5147 122.64 29.76C122.064 29.9947 121.403 30.112 120.656 30.112ZM130.209 30.112C129.388 30.112 128.647 29.9307 127.985 29.568C127.335 29.1947 126.823 28.6827 126.449 28.032C126.076 27.3813 125.889 26.6133 125.889 25.728C125.889 24.8427 126.076 24.0747 126.449 23.424C126.823 22.7733 127.335 22.2667 127.985 21.904C128.647 21.5413 129.388 21.36 130.209 21.36C130.924 21.36 131.564 21.52 132.129 21.84C132.695 22.1493 133.143 22.624 133.473 23.264C133.804 23.904 133.969 24.7253 133.969 25.728C133.969 26.72 133.809 27.5413 133.489 28.192C133.169 28.832 132.727 29.312 132.161 29.632C131.596 29.952 130.945 30.112 130.209 30.112ZM130.449 28.4C130.929 28.4 131.356 28.2933 131.729 28.08C132.113 27.8667 132.417 27.5573 132.641 27.152C132.876 26.7467 132.993 26.272 132.993 25.728C132.993 25.1733 132.876 24.6987 132.641 24.304C132.417 23.8987 132.113 23.5893 131.729 23.376C131.356 23.1627 130.929 23.056 130.449 23.056C129.969 23.056 129.537 23.1627 129.153 23.376C128.78 23.5893 128.476 23.8987 128.241 24.304C128.017 24.6987 127.905 25.1733 127.905 25.728C127.905 26.272 128.017 26.7467 128.241 27.152C128.476 27.5573 128.78 27.8667 129.153 28.08C129.537 28.2933 129.969 28.4 130.449 28.4ZM133.041 30V27.984L133.121 25.712L132.961 23.44V18.128H134.945V30H133.041ZM137.578 30V21.456H139.578V30H137.578ZM138.586 20.048C138.212 20.048 137.903 19.9307 137.658 19.696C137.423 19.4613 137.306 19.1787 137.306 18.848C137.306 18.5067 137.423 18.224 137.658 18C137.903 17.7653 138.212 17.648 138.586 17.648C138.959 17.648 139.263 17.76 139.498 17.984C139.743 18.1973 139.866 18.4693 139.866 18.8C139.866 19.152 139.748 19.4507 139.514 19.696C139.279 19.9307 138.97 20.048 138.586 20.048ZM147.051 21.36C147.733 21.36 148.341 21.4933 148.875 21.76C149.419 22.0267 149.845 22.4373 150.155 22.992C150.464 23.536 150.619 24.24 150.619 25.104V30H148.619V25.36C148.619 24.6027 148.437 24.0373 148.075 23.664C147.723 23.2907 147.227 23.104 146.587 23.104C146.117 23.104 145.701 23.2 145.339 23.392C144.976 23.584 144.693 23.872 144.491 24.256C144.299 24.6293 144.203 25.104 144.203 25.68V30H142.203V21.456H144.107V23.76L143.771 23.056C144.069 22.512 144.501 22.096 145.067 21.808C145.643 21.5093 146.304 21.36 147.051 21.36ZM157.043 33.216C156.254 33.216 155.481 33.1093 154.723 32.896C153.977 32.6933 153.363 32.3947 152.883 32L153.779 30.496C154.153 30.8053 154.622 31.0507 155.187 31.232C155.763 31.424 156.345 31.52 156.931 31.52C157.87 31.52 158.558 31.3013 158.995 30.864C159.433 30.4373 159.651 29.792 159.651 28.928V27.408L159.811 25.472L159.747 23.536V21.456H161.651V28.704C161.651 30.2507 161.257 31.3867 160.467 32.112C159.678 32.848 158.537 33.216 157.043 33.216ZM156.787 29.616C155.977 29.616 155.241 29.4453 154.579 29.104C153.929 28.752 153.411 28.2667 153.027 27.648C152.654 27.0293 152.467 26.304 152.467 25.472C152.467 24.6507 152.654 23.9307 153.027 23.312C153.411 22.6933 153.929 22.2133 154.579 21.872C155.241 21.5307 155.977 21.36 156.787 21.36C157.513 21.36 158.163 21.504 158.739 21.792C159.315 22.08 159.774 22.528 160.115 23.136C160.467 23.744 160.643 24.5227 160.643 25.472C160.643 26.4213 160.467 27.2053 160.115 27.824C159.774 28.432 159.315 28.8853 158.739 29.184C158.163 29.472 157.513 29.616 156.787 29.616ZM157.091 27.92C157.593 27.92 158.041 27.8187 158.435 27.616C158.83 27.4027 159.134 27.1147 159.347 26.752C159.571 26.3787 159.683 25.952 159.683 25.472C159.683 24.992 159.571 24.5707 159.347 24.208C159.134 23.8347 158.83 23.552 158.435 23.36C158.041 23.1573 157.593 23.056 157.091 23.056C156.59 23.056 156.137 23.1573 155.731 23.36C155.337 23.552 155.027 23.8347 154.803 24.208C154.59 24.5707 154.483 24.992 154.483 25.472C154.483 25.952 154.59 26.3787 154.803 26.752C155.027 27.1147 155.337 27.4027 155.731 27.616C156.137 27.8187 156.59 27.92 157.091 27.92ZM167.897 30.112C167.171 30.112 166.531 29.9787 165.977 29.712C165.422 29.4347 164.99 29.0187 164.681 28.464C164.371 27.8987 164.217 27.1893 164.217 26.336V21.456H166.217V26.064C166.217 26.832 166.387 27.408 166.729 27.792C167.081 28.1653 167.577 28.352 168.217 28.352C168.686 28.352 169.091 28.256 169.433 28.064C169.785 27.872 170.057 27.584 170.249 27.2C170.451 26.816 170.553 26.3413 170.553 25.776V21.456H172.553V30H170.649V27.696L170.985 28.4C170.697 28.9547 170.275 29.3813 169.721 29.68C169.166 29.968 168.558 30.112 167.897 30.112ZM180.019 21.36C180.702 21.36 181.31 21.4933 181.843 21.76C182.387 22.0267 182.814 22.4373 183.123 22.992C183.433 23.536 183.587 24.24 183.587 25.104V30H181.587V25.36C181.587 24.6027 181.406 24.0373 181.043 23.664C180.691 23.2907 180.195 23.104 179.555 23.104C179.086 23.104 178.67 23.2 178.307 23.392C177.945 23.584 177.662 23.872 177.459 24.256C177.267 24.6293 177.171 25.104 177.171 25.68V30H175.171V21.456H177.075V23.76L176.739 23.056C177.038 22.512 177.47 22.096 178.035 21.808C178.611 21.5093 179.273 21.36 180.019 21.36ZM190.012 33.216C189.223 33.216 188.449 33.1093 187.692 32.896C186.945 32.6933 186.332 32.3947 185.852 32L186.748 30.496C187.121 30.8053 187.591 31.0507 188.156 31.232C188.732 31.424 189.313 31.52 189.9 31.52C190.839 31.52 191.527 31.3013 191.964 30.864C192.401 30.4373 192.62 29.792 192.62 28.928V27.408L192.78 25.472L192.716 23.536V21.456H194.62V28.704C194.62 30.2507 194.225 31.3867 193.436 32.112C192.647 32.848 191.505 33.216 190.012 33.216ZM189.756 29.616C188.945 29.616 188.209 29.4453 187.548 29.104C186.897 28.752 186.38 28.2667 185.996 27.648C185.623 27.0293 185.436 26.304 185.436 25.472C185.436 24.6507 185.623 23.9307 185.996 23.312C186.38 22.6933 186.897 22.2133 187.548 21.872C188.209 21.5307 188.945 21.36 189.756 21.36C190.481 21.36 191.132 21.504 191.708 21.792C192.284 22.08 192.743 22.528 193.084 23.136C193.436 23.744 193.612 24.5227 193.612 25.472C193.612 26.4213 193.436 27.2053 193.084 27.824C192.743 28.432 192.284 28.8853 191.708 29.184C191.132 29.472 190.481 29.616 189.756 29.616ZM190.06 27.92C190.561 27.92 191.009 27.8187 191.404 27.616C191.799 27.4027 192.103 27.1147 192.316 26.752C192.54 26.3787 192.652 25.952 192.652 25.472C192.652 24.992 192.54 24.5707 192.316 24.208C192.103 23.8347 191.799 23.552 191.404 23.36C191.009 23.1573 190.561 23.056 190.06 23.056C189.559 23.056 189.105 23.1573 188.7 23.36C188.305 23.552 187.996 23.8347 187.772 24.208C187.559 24.5707 187.452 24.992 187.452 25.472C187.452 25.952 187.559 26.3787 187.772 26.752C187.996 27.1147 188.305 27.4027 188.7 27.616C189.105 27.8187 189.559 27.92 190.06 27.92ZM201.266 30.112C200.316 30.112 199.484 29.9253 198.77 29.552C198.066 29.168 197.516 28.6453 197.122 27.984C196.738 27.3227 196.546 26.5707 196.546 25.728C196.546 24.8747 196.732 24.1227 197.106 23.472C197.49 22.8107 198.012 22.2933 198.674 21.92C199.346 21.5467 200.108 21.36 200.962 21.36C201.794 21.36 202.535 21.5413 203.186 21.904C203.836 22.2667 204.348 22.7787 204.722 23.44C205.095 24.1013 205.282 24.88 205.282 25.776C205.282 25.8613 205.276 25.9573 205.266 26.064C205.266 26.1707 205.26 26.272 205.25 26.368H198.13V25.04H204.194L203.41 25.456C203.42 24.9653 203.319 24.5333 203.106 24.16C202.892 23.7867 202.599 23.4933 202.226 23.28C201.863 23.0667 201.442 22.96 200.962 22.96C200.471 22.96 200.039 23.0667 199.666 23.28C199.303 23.4933 199.015 23.792 198.802 24.176C198.599 24.5493 198.498 24.992 198.498 25.504V25.824C198.498 26.336 198.615 26.7893 198.85 27.184C199.084 27.5787 199.415 27.8827 199.842 28.096C200.268 28.3093 200.759 28.416 201.314 28.416C201.794 28.416 202.226 28.3413 202.61 28.192C202.994 28.0427 203.335 27.808 203.634 27.488L204.706 28.72C204.322 29.168 203.836 29.5147 203.25 29.76C202.674 29.9947 202.012 30.112 201.266 30.112ZM212.051 21.36C212.733 21.36 213.341 21.4933 213.875 21.76C214.419 22.0267 214.845 22.4373 215.155 22.992C215.464 23.536 215.619 24.24 215.619 25.104V30H213.619V25.36C213.619 24.6027 213.437 24.0373 213.075 23.664C212.723 23.2907 212.227 23.104 211.587 23.104C211.117 23.104 210.701 23.2 210.339 23.392C209.976 23.584 209.693 23.872 209.491 24.256C209.299 24.6293 209.203 25.104 209.203 25.68V30H207.203V21.456H209.107V23.76L208.771 23.056C209.069 22.512 209.501 22.096 210.067 21.808C210.643 21.5093 211.304 21.36 212.051 21.36Z" fill="white"/>
<path d="M232.698 1H11.3023L2 24.4545L11.3023 49H232.698L242 24.4545L232.698 1Z" stroke="white" stroke-width="2"/>
</svg>
