<svg width="203" height="56" viewBox="0 0 203 56" fill="none" xmlns="http://www.w3.org/2000/svg">
<path fill-rule="evenodd" clip-rule="evenodd" d="M118.606 14.3822C118.382 15.0671 116.325 27.5742 116.325 27.5742C116.325 27.5742 127.114 17.6808 128.868 14.3822C128.868 14.3822 123.906 14.3822 118.606 14.3822ZM148.823 14.3817C147.899 18.2894 143.122 42.7541 143.122 43.6334H147.683L155.095 37.8978L152.814 43.6334H167.068L168.208 37.3242C161.059 37.3242 152.814 37.3242 152.814 37.3242C152.963 36.7725 153.404 34.6229 153.596 33.755L153.945 32.1777H160.443H166.942L168.208 25.2793C163.241 25.2793 155.095 25.2793 155.095 25.2793C155.216 24.8854 155.693 23.1515 155.882 22.2838L156.225 20.7064H163.579H170.933L171.55 17.8105C171.89 16.2177 172.168 14.6691 172.168 14.3691C160.529 14.3691 148.823 14.3817 148.823 14.3817ZM176.19 14.3691C175.833 16.157 175.05 20.4282 175.05 20.6909H181.322L185.883 14.3817C185.883 14.3817 178.812 14.3691 176.19 14.3691ZM184.743 20.6909L179.611 43.6334C179.611 43.6334 185.131 43.6334 188.163 43.6334L192.724 20.6909H201.847L202.986 14.3817H190.444L184.743 20.6909ZM135.71 14.3817C134.733 15.2404 129.36 19.8409 128.298 20.6915L130.073 20.6755C133.619 20.7168 134.538 21.1424 134.538 22.7426C134.538 24.8343 132.501 25.8684 128.379 25.8684H124.755L125.141 24.0045C125.509 22.2247 125.329 22.3353 121.177 26.442L114.615 33.8829C114.245 35.9333 113.074 43.0518 112.904 43.6334H123.167C132.907 43.451 134.553 43.7753 136.819 42.7134C140.24 41.1093 141.978 39.0903 142.353 36.2838C142.74 33.3718 142.241 31.323 140.786 29.8594C139.652 28.7191 139.131 28.7209 139.131 28.7209C140.914 26.9267 143.692 25.0878 143.692 22.4121C143.692 20.1173 143.692 18.9706 141.982 16.6764C140.271 14.3822 135.71 14.3817 135.71 14.3817ZM133.284 32.8661C134.297 33.8858 134.116 35.3065 132.821 36.4858C131.978 37.2531 130.447 37.6019 127.056 37.7992L122.597 37.8978L123.737 32.1622C123.737 32.1622 132.533 32.1105 133.284 32.8661Z" fill="white"/>
<path fill-rule="evenodd" clip-rule="evenodd" d="M64.2886 5.47099L65.9801 6.31087L69.363 0.431641L64.2886 5.47099ZM57.5229 7.99066H59.2144L60.9057 7.15078L60.06 6.31087L57.5229 7.99066ZM52.4485 11.3502C52.4485 11.3502 54.3749 12.476 53.8027 13.6231C53.8027 13.6231 53.1066 13.3536 49.6471 13.4012C42.4018 13.501 36.4022 17.0405 33.3244 23.0319C32.0783 25.4576 31.8082 26.771 31.7778 30.5587C31.7578 33.0824 33.2035 36.5656 33.2035 36.5656L34.9171 34.845C36.1543 33.7248 39.176 31.2934 40.0699 30.8301C39.4977 26.2416 42.9309 20.5058 50.3695 20.5058C50.3695 20.5058 53.7455 18.4543 54.3749 18.2116L52.6583 20.5058C52.6583 20.5058 52.8349 20.7709 54.3749 22.2265C56.0948 23.8521 56.0994 24.9361 56.0915 27.3887C56.0806 30.5691 54.3705 33.8075 51.9765 35.5867C49.8851 37.1404 45.8344 37.5196 43.6143 36.3684L41.8514 35.4547L38.3533 42.3012L41.0315 43.815C47.3084 45.6441 55.54 43.8236 59.4962 39.7317C61.341 37.8248 62.3856 35.9921 62.3856 35.9921L62.5972 39.0666L64.0575 39.7317L65.9801 36.547C65.9801 36.547 64.75 34.006 64.0575 33.0152C64.0575 33.0152 65.2466 26.8152 64.6744 23.3738C64.9184 23.2227 66.5733 21.5584 66.5733 21.5584L66.391 19.9323L67.6716 16.3895C65.1257 17.999 62.3856 18.2116 62.3856 18.2116C62.3856 18.2116 59.5247 15.9174 57.2359 14.7703C57.1363 13.6662 56.6771 11.3502 56.6771 11.3502L55.8315 12.1901L54.14 10.5103L52.4485 11.3502ZM62.5972 10.5103L60.06 12.1901L62.5972 14.7098H63.443L64.2886 13.03L62.5972 10.5103ZM5.73507 14.1967C5.57714 14.7485 5.10393 17.8245 4.59067 20.5058C4.07739 23.1873 3.61906 26.1842 3.44627 26.8152L8.59606 20.5058L13.1737 14.1967C9.86691 14.1967 5.73507 14.1967 5.73507 14.1967ZM9.77045 23.9937C6.37008 28.0552 5.46673 28.7355 2.29904 31.9772C2.29904 31.9772 1.01044 38.9053 0.0136719 43.4485H8.59606L9.74046 35.9921C9.74046 35.9921 12.2418 36.0455 15.8238 35.9194C22.9368 35.6681 26.3341 33.1243 28.3928 30.5587C30.018 28.5331 30.3395 26.2416 30.3395 23.9474C30.3395 19.3587 28.0507 14.1967 16.0346 14.1967C16.0346 14.1967 13.1708 19.9323 9.77045 23.9937ZM69.252 14.1972C70.1887 21.7683 72.6834 43.0548 72.6852 43.4489H81.8404L86.1647 35.446L90.9956 26.242C91.2021 27.7338 92.3321 40.2151 92.7122 43.4489H101.867C106.11 35.357 117.212 14.465 117.317 14.1972C117.317 14.1972 111.816 14.1972 109.306 14.1972L99.5786 32.5511C99.0361 27.8192 97.3074 14.6055 97.2898 14.1972H89.279L84.4766 22.6476C81.8194 27.6497 79.7839 32.355 79.5516 31.9776C79.1567 27.2239 77.835 21.08 77.835 21.08C77.1655 21.5645 75.2813 22.8844 74.4018 23.3742L72.113 25.0949C72.7412 23.8967 76.6196 15.1436 77.2628 14.1972C77.2628 14.1972 73.3221 14.1972 69.252 14.1972ZM20.6122 21.6529C21.6954 22.5322 21.829 23.5275 21.4984 25.2951C20.9952 27.9829 18.9285 29.1249 14.5649 29.1249C11.7783 29.1249 11.4571 29.1094 11.4571 29.1094C11.6121 28.5576 12.0821 26.2141 12.2864 25.11C13.0394 21.0417 13.1765 20.5058 13.1765 20.5058C15.2719 20.5058 18.8956 20.5058 20.6122 21.6529ZM60.0969 42.3012C59.7186 42.7579 55.5193 45.1692 55.5193 45.1692L52.0032 46.4279V48.6115L54.9856 49.9852L57.8081 49.1841L58.0061 47.0824L60.0969 42.3012Z" fill="#FFDC26"/>
</svg>
